<svg xmlns="http://www.w3.org/2000/svg" width="708" height="193" viewBox="0 0 708 193">
  <g fill="none" fill-rule="evenodd">
    <path fill="#1E0936" d="M277.062 79.026c-8.14-4.598-15.82-6.64-23.495-6.64-6.35 0-10.405 2.642-10.405 6.695 0 12.16 45.85 1.94 45.85 34.9 0 14.98-13.225 27.14-34.387 27.14-9.504 0-21.143-2.13-29.164-6.4-.19-.1-.41-.24-.66-.42-1.16-.83-1.57-2.35-.99-3.66l5.4-12.14c.67-1.5 2.43-2.19 3.94-1.53.33.14.62.27.87.37 6.97 2.85 14.19 4.41 20.63 4.41 10.05 0 13.23-2.64 13.23-7.75 0-13.74-45.85-3.7-45.85-34.89C222 64.99 234.35 53 253.57 53c9.722 0 22.85 3.388 31.49 8.353.23.135.5.294.79.478 1.27.8 1.762 2.4 1.155 3.77l-5.424 12.21c-.68 1.52-2.45 2.2-3.96 1.53-.1-.04-.19-.09-.28-.14-.1-.05-.19-.11-.28-.15zm86.196-23.383h14.456c1.657 0 3 1.344 3 3V176c0 1.657-1.343 3-3 3h-14.456c-1.657 0-3-1.343-3-3v-41.056c-5.467 3.525-13.226 6.168-21.162 6.168-24.69 0-43.382-19.56-43.382-44.056S314.407 53 339.096 53c7.936 0 15.695 2.643 21.162 6.168v-.525c0-1.656 1.343-3 3-3zm-3 56.216V82.25c-5.82-5.99-12.874-9.516-20.457-9.516-13.22 0-23.1 10.397-23.1 24.32 0 13.92 9.88 24.318 23.1 24.318 7.59 0 14.64-2.644 20.46-9.516zm88.748-56.3c-4.586-1.9-9.176-2.56-13.763-2.56-7.935 0-15.87 2.64-22.043 6.16v-1.07c0-1.36-1.097-2.46-2.45-2.46h-15.556c-1.354 0-2.45 1.1-2.45 2.45v80.56c0 1.35 1.096 2.45 2.45 2.45h15.555c1.35 0 2.45-1.1 2.45-2.46v-57.1c4.76-5.46 12.87-8.81 20.98-8.81 1.88 0 4.27.16 6.8.683l.03.01c1.38.29 2.78-.428 3.35-1.72l5.83-13.14c.5-1.14-.01-2.478-1.15-2.985l-.05-.02zm74.734 76.58c-7.912 4.74-19.15 8.96-30.534 8.96-26.98 0-46.91-19.92-46.91-44.76 0-23.97 16.754-43.35 42.678-43.35 23.454 0 38.09 20.09 38.09 40.88 0 1.75-.173 3.86-.397 5.63l-.01.07c-.194 1.49-1.47 2.61-2.977 2.61l-56.573-.03c2.47 12.86 12.52 20.44 26.1 20.44 7.588 0 15.616-2.11 23.03-6.32 1.232-.7 2.797-.27 3.496.96.042.07.08.144.114.22l5.243 11.8c.406.912.076 1.984-.77 2.51-.22.14-.414.26-.58.36zm-55.93-45.48h38.62c-.88-8.29-8.464-15.16-17.458-15.16-11.64 0-18.517 6.87-21.162 15.15zm145.286 45.48c-7.912 4.74-19.15 8.96-30.533 8.96-26.982 0-46.91-19.92-46.91-44.76 0-23.97 16.755-43.35 42.677-43.35 23.455 0 38.092 20.09 38.092 40.88 0 1.75-.175 3.86-.4 5.63-.002.02-.005.05-.01.07-.193 1.49-1.467 2.61-2.975 2.61l-56.574-.03c2.47 12.87 12.52 20.44 26.1 20.44 7.59 0 15.616-2.1 23.03-6.31 1.232-.7 2.797-.27 3.497.96.04.07.08.146.113.222l5.244 11.8c.405.91.076 1.98-.772 2.51-.22.133-.412.25-.58.35zm-55.928-45.48h38.62c-.88-8.29-8.464-15.16-17.458-15.16-11.64 0-18.516 6.87-21.162 15.15zm68.652-28.02v79.47c0 1.65 1.344 3 3 3h14.458c1.657 0 3-1.35 3-3V81.54c4.76-5.463 12.873-8.81 20.985-8.81 13.226 0 20.28 7.224 20.28 21.322v44.05c0 1.65 1.344 3 3 3H705c1.657 0 3-1.35 3-3V91.77C708 67.98 694.774 53 668.32 53c-7.934 0-15.87 2.643-22.042 6.168v-.525c0-1.656-1.343-3-3-3H628.82c-1.656 0-3 1.344-3 3z"/>
    <ellipse cx="85" cy="96.5" fill="#B0ACFF" rx="45.769" ry="45.797"/>
    <path fill="#4842B7" d="M78.462 175.75v-73.54L13.14 64.472v64.708l23.212-13.41c1.624 4.103 3.752 7.95 6.306 11.467l-24.086 13.915 59.89 34.597zm13.076 0l59.89-34.598-24.086-13.915c2.554-3.516 4.682-7.364 6.306-11.466l23.212 13.41v-64.7l-65.322 37.73v73.54zM18.006 52.174L85 90.877l66.994-38.702L91.538 17.25v27.316c-2.142-.267-4.324-.405-6.538-.405-2.214 0-4.396.14-6.538.41V17.25L18.006 52.176zm72.88-50.41l73.166 42.268c3.642 2.103 5.885 5.99 5.885 10.198v84.54c0 4.206-2.243 8.094-5.885 10.197l-73.167 42.27c-3.642 2.103-8.128 2.103-11.77 0l-73.167-42.27c-3.642-2.103-5.885-5.99-5.885-10.198V54.23c0-4.206 2.243-8.094 5.885-10.197l73.167-42.27c3.642-2.103 8.128-2.103 11.77 0z"/>
  </g>
</svg>